<svg width="125" height="146" viewBox="0 0 125 146" fill="none" xmlns="http://www.w3.org/2000/svg">
<path opacity="0.1" d="M26 141.5C26 142.461 29.8192 143.383 36.6174 144.063C43.4156 144.743 52.6359 145.125 62.25 145.125C71.8641 145.125 81.0844 144.743 87.8826 144.063C94.6808 143.383 98.5 142.461 98.5 141.5C98.5 140.539 94.6808 139.617 87.8826 138.937C81.0844 138.257 71.8641 137.875 62.25 137.875C52.6359 137.875 43.4156 138.257 36.6174 138.937C29.8192 139.617 26 140.539 26 141.5Z" fill="#035EDD"/>
<path opacity="0.5" d="M74.2812 80.4063H48.2395M61.2603 67.6979V93.7396" stroke="#02357E" stroke-width="1.5" stroke-miterlimit="10" stroke-linecap="round" stroke-linejoin="round"/>
<path opacity="0.5" d="M65.9374 13.1146L65.7812 13.4792L50.677 48.5312H35.8333C32.2916 48.5312 28.9062 49.2604 25.8333 50.5625L34.9478 28.7917L35.1562 28.2708L35.5208 27.4375C35.6249 27.125 35.7291 26.8125 35.8853 26.5521C42.7083 10.7708 50.4166 7.17708 65.9374 13.1146Z" stroke="#02357E" stroke-width="1.5" stroke-linecap="round" stroke-linejoin="round"/>
<path opacity="0.5" d="M94.0103 49.5729C91.6666 48.8437 89.1666 48.5312 86.6666 48.5312H50.677L65.7812 13.4791L65.9374 13.1146C66.7187 13.375 67.4478 13.7396 68.2291 14.0521L79.7395 18.8958C86.1458 21.5521 90.6249 24.3125 93.3333 27.6458C93.8541 28.2708 94.2708 28.8437 94.6353 29.5208C95.1041 30.25 95.4687 30.9791 95.677 31.7604C95.8853 32.2291 96.0416 32.6979 96.1457 33.1146C97.552 37.4896 96.7187 42.8541 94.0103 49.5729Z" stroke="#02357E" stroke-width="1.5" stroke-linecap="round" stroke-linejoin="round"/>
<path opacity="0.5" d="M112.094 73.9479V84.1042C112.094 85.1458 112.042 86.1875 111.99 87.2292C111 105.406 100.844 114.573 81.573 114.573H40.948C39.698 114.573 38.448 114.469 37.2501 114.313C20.6876 113.219 11.8334 104.365 10.7397 87.8021C10.5834 86.6042 10.4792 85.3542 10.4792 84.1042V73.9479C10.4792 63.4792 16.8334 54.4688 25.8959 50.5625C29.0209 49.2604 32.3542 48.5312 35.8959 48.5312H86.7292C89.2813 48.5312 91.7813 48.8958 94.073 49.5729C104.438 52.75 112.094 62.4375 112.094 73.9479Z" stroke="#02357E" stroke-width="1.5" stroke-linecap="round" stroke-linejoin="round"/>
<path opacity="0.5" d="M34.948 28.7917L25.8334 50.5625C21.2611 52.5295 17.3647 55.7922 14.6251 59.9479C11.8854 64.1036 10.4225 68.9705 10.4167 73.9479V58.6875C10.4167 43.8959 20.9376 31.5521 34.948 28.7917ZM112.078 58.6875V73.9479C112.078 62.4896 104.474 52.75 94.0574 49.625C96.7657 42.8542 97.547 37.5417 96.2449 33.1146C96.1407 32.6459 95.9845 32.1771 95.7761 31.7604C105.464 36.7604 112.078 47.0209 112.078 58.6875Z" stroke="#02357E" stroke-width="1.5" stroke-linecap="round" stroke-linejoin="round"/>
</svg>
