<svg width="190" height="190" viewBox="0 0 190 190" fill="none" xmlns="http://www.w3.org/2000/svg">
<path d="M18.764 116.864C14.3168 113.126 11.5341 107.772 11.0281 101.98C10.5221 96.1867 12.3343 90.4301 16.066 85.9756L26.6187 73.3789C27.5516 72.2656 28.0046 70.8266 27.8781 69.3782C27.7516 67.9298 27.056 66.5914 25.9442 65.657C24.8323 64.7226 23.3955 64.2689 21.9496 64.3958C20.5038 64.5221 19.1674 65.2191 18.2345 66.3324L7.68182 78.9291C2.08433 85.6108 -0.633943 94.246 0.125035 102.935C0.884012 111.624 5.05801 119.655 11.7288 125.262L24.3051 135.831C25.4169 136.765 26.8537 137.22 28.2996 137.093C29.7454 136.966 31.0818 136.27 32.0147 135.156C32.9476 134.042 33.4006 132.603 33.2741 131.155C33.1477 129.707 32.452 128.368 31.3402 127.434L18.764 116.864ZM36.3518 95.8698C35.4189 96.9831 34.9658 98.4227 35.0923 99.8705C35.2188 101.319 35.9145 102.657 37.0263 103.592L95.7154 152.917C96.8269 153.852 98.2642 154.305 99.7096 154.179C101.156 154.052 102.492 153.355 103.425 152.241C104.358 151.128 104.811 149.689 104.685 148.241C104.558 146.792 103.862 145.454 102.751 144.52L44.0615 95.1944C42.9497 94.26 41.5128 93.8057 40.0669 93.9326C38.6211 94.0595 37.2847 94.7559 36.3518 95.8698ZM57.4571 70.6769C56.5242 71.7902 56.0712 73.2298 56.1979 74.6776C56.324 76.1259 57.0198 77.4644 58.1319 78.3988L116.821 127.724C117.932 128.659 119.37 129.113 120.815 128.986C122.261 128.859 123.597 128.162 124.53 127.049C125.463 125.935 125.916 124.496 125.79 123.048C125.663 121.599 124.968 120.261 123.856 119.327L65.1671 70.0009C64.055 69.0665 62.6183 68.6128 61.1723 68.7397C59.7263 68.8666 58.39 69.563 57.4571 70.6769ZM79.2369 53.2059C78.1254 52.2715 77.4295 50.933 77.3034 49.4847C77.1767 48.0363 77.6297 46.5973 78.5626 45.484C79.4955 44.3701 80.8318 43.6733 82.2778 43.5467C83.7239 43.42 85.1605 43.8737 86.2721 44.8082L119.809 72.9941C120.921 73.9285 121.616 75.267 121.743 76.7153C121.869 78.1631 121.416 79.6027 120.484 80.716C119.551 81.8299 118.214 82.5263 116.768 82.6532C115.322 82.7801 113.886 82.3264 112.774 81.392L96.0055 67.2989L79.2369 53.2059ZM66.2255 171.064C65.114 170.129 64.4181 168.791 64.292 167.343C64.1653 165.895 64.6184 164.455 65.5513 163.342C66.4841 162.228 67.8204 161.532 69.2665 161.405C70.7125 161.278 72.1492 161.732 73.2607 162.666L85.8372 173.236C90.2844 176.974 96.0318 178.789 101.815 178.282C107.598 177.775 112.944 174.988 116.676 170.533L127.229 157.937C128.161 156.823 129.498 156.126 130.944 156C132.389 155.873 133.827 156.327 134.938 157.261C136.05 158.196 136.745 159.534 136.872 160.982C136.999 162.431 136.545 163.87 135.612 164.983L125.06 177.58C119.463 184.262 111.444 188.442 102.769 189.203C94.0942 189.963 85.4729 187.24 78.802 181.633L66.2255 171.064ZM54.0846 32.0663C55.1967 33.0008 56.6334 33.4545 58.0794 33.3279C59.5249 33.2012 60.8611 32.5044 61.7946 31.3907L72.3471 18.7942C76.0786 14.3399 81.4243 11.5527 87.2073 11.0459C92.9908 10.5391 98.7382 12.3542 103.185 16.0919L115.762 26.6616C116.873 27.596 118.311 28.0498 119.756 27.9231C121.202 27.7964 122.538 27.0996 123.471 25.986C124.404 24.8724 124.857 23.4332 124.731 21.985C124.604 20.5369 123.909 19.1983 122.797 18.2639L110.221 7.69422C103.55 2.08769 94.9284 -0.634965 86.2534 0.125236C77.5784 0.88538 69.5607 5.06617 63.9628 11.7478L53.4103 24.3443C52.4774 25.4579 52.0244 26.8971 52.1505 28.3453C52.2772 29.7934 52.9731 31.1319 54.0846 32.0663ZM170.788 122.995C169.855 124.109 168.519 124.806 167.073 124.932C165.628 125.059 164.19 124.605 163.079 123.671C161.967 122.736 161.271 121.398 161.145 119.949C161.018 118.502 161.471 117.062 162.404 115.949L172.957 103.352C176.689 98.8975 178.501 93.1409 177.994 87.348C177.489 81.5557 174.706 76.2014 170.259 72.4638L157.683 61.8943C156.571 60.9593 155.875 59.6209 155.749 58.1731C155.622 56.7247 156.075 55.2857 157.008 54.1718C157.941 53.0585 159.277 52.3615 160.723 52.2346C162.169 52.1083 163.606 52.5621 164.717 53.4965L177.294 64.066C183.965 69.6723 188.139 77.7035 188.898 86.3925C189.657 95.0816 186.939 103.717 181.341 110.398L170.788 122.995Z" fill="url(#paint0_linear_494_617)"/>
<defs>
<linearGradient id="paint0_linear_494_617" x1="45.2654" y1="153.448" x2="143.944" y2="36.0368" gradientUnits="userSpaceOnUse">
<stop stop-color="#0A70FF"/>
<stop offset="1" stop-color="#98C3FF"/>
</linearGradient>
</defs>
</svg>
