<svg width="696" height="120" viewBox="0 0 696 120" fill="none" xmlns="http://www.w3.org/2000/svg">
<path d="M165.63 41.6364V78H159.043V41.6364H165.63ZM215.146 41.6364V78H209.287L192.153 53.2308H191.851V78H185.263V41.6364H191.158L208.275 66.4233H208.594V41.6364H215.146ZM233.226 47.1584V41.6364H262.239V47.1584H250.999V78H244.465V47.1584H233.226ZM280.332 78V41.6364H303.982V47.1584H286.919V57.0305H302.757V62.5526H286.919V72.478H304.124V78H280.332ZM323.203 78V41.6364H329.79V72.478H345.806V78H323.203ZM364.023 78V41.6364H370.611V72.478H386.626V78H364.023ZM411.431 41.6364V78H404.843V41.6364H411.431ZM455.425 53.2486C455.129 52.2898 454.721 51.4316 454.2 50.674C453.691 49.9046 453.075 49.2476 452.353 48.7031C451.643 48.1586 450.826 47.7502 449.903 47.478C448.98 47.1939 447.974 47.0518 446.884 47.0518C444.931 47.0518 443.191 47.5431 441.664 48.5256C440.137 49.508 438.936 50.9522 438.06 52.858C437.196 54.7519 436.764 57.0601 436.764 59.7827C436.764 62.5289 437.196 64.8549 438.06 66.7607C438.924 68.6664 440.126 70.1165 441.664 71.1108C443.203 72.0933 444.991 72.5845 447.027 72.5845C448.873 72.5845 450.471 72.2294 451.821 71.5192C453.182 70.8089 454.229 69.8028 454.963 68.5007C455.697 67.1868 456.064 65.648 456.064 63.8842L457.556 64.1151H447.684V58.9659H462.438V63.3338C462.438 66.447 461.776 69.1399 460.45 71.4126C459.124 73.6854 457.301 75.4373 454.981 76.6683C452.661 77.8875 449.998 78.4972 446.991 78.4972C443.641 78.4972 440.7 77.7455 438.166 76.2422C435.645 74.727 433.674 72.5786 432.254 69.7969C430.845 67.0033 430.141 63.6889 430.141 59.8537C430.141 56.9181 430.555 54.2962 431.384 51.9879C432.224 49.6797 433.396 47.7206 434.899 46.1108C436.403 44.4891 438.166 43.258 440.191 42.4176C442.215 41.5653 444.416 41.1392 446.796 41.1392C448.808 41.1392 450.684 41.4351 452.424 42.027C454.164 42.607 455.709 43.4356 457.059 44.5128C458.42 45.59 459.538 46.8684 460.414 48.348C461.29 49.8277 461.864 51.4612 462.137 53.2486H455.425ZM481.308 78V41.6364H494.945C497.738 41.6364 500.082 42.1217 501.976 43.0923C503.882 44.063 505.32 45.4242 506.291 47.1761C507.273 48.9162 507.764 50.9463 507.764 53.2663C507.764 55.5982 507.267 57.6224 506.273 59.3388C505.29 61.0433 503.84 62.3632 501.923 63.2983C500.005 64.2216 497.649 64.6832 494.856 64.6832H485.144V59.2145H493.968C495.602 59.2145 496.939 58.9896 497.981 58.5398C499.023 58.0781 499.792 57.4093 500.289 56.5334C500.798 55.6456 501.053 54.5566 501.053 53.2663C501.053 51.9761 500.798 50.8752 500.289 49.9638C499.78 49.0405 499.005 48.3421 497.963 47.8686C496.921 47.3833 495.578 47.1406 493.933 47.1406H487.896V78H481.308ZM500.094 61.5227L509.096 78H501.745L492.903 61.5227H500.094ZM530.998 78H523.966L536.768 41.6364H544.9L557.72 78H550.689L540.976 49.0938H540.692L530.998 78ZM531.228 63.7422H550.405V69.0334H531.228V63.7422ZM587.332 78H575.009V41.6364H587.581C591.191 41.6364 594.292 42.3643 596.885 43.8203C599.489 45.2644 601.489 47.3419 602.886 50.0526C604.283 52.7633 604.981 56.0066 604.981 59.7827C604.981 63.5705 604.277 66.8258 602.868 69.5483C601.471 72.2708 599.453 74.3601 596.813 75.8161C594.186 77.272 591.025 78 587.332 78ZM581.597 72.3004H587.012C589.545 72.3004 591.658 71.8388 593.351 70.9155C595.044 69.9804 596.316 68.5895 597.169 66.7429C598.021 64.8845 598.447 62.5644 598.447 59.7827C598.447 57.0009 598.021 54.6927 597.169 52.858C596.316 51.0114 595.056 49.6323 593.387 48.7209C591.729 47.7976 589.67 47.3359 587.208 47.3359H581.597V72.3004ZM623.74 78V41.6364H647.391V47.1584H630.327V57.0305H646.165V62.5526H630.327V72.478H647.533V78H623.74ZM666.611 78V41.6364H680.247C683.041 41.6364 685.385 42.1217 687.279 43.0923C689.184 44.063 690.623 45.4242 691.593 47.1761C692.576 48.9162 693.067 50.9463 693.067 53.2663C693.067 55.5982 692.57 57.6224 691.576 59.3388C690.593 61.0433 689.143 62.3632 687.225 63.2983C685.308 64.2216 682.952 64.6832 680.159 64.6832H670.446V59.2145H679.271C680.904 59.2145 682.242 58.9896 683.284 58.5398C684.325 58.0781 685.095 57.4093 685.592 56.5334C686.101 55.6456 686.355 54.5566 686.355 53.2663C686.355 51.9761 686.101 50.8752 685.592 49.9638C685.083 49.0405 684.308 48.3421 683.266 47.8686C682.224 47.3833 680.881 47.1406 679.235 47.1406H673.198V78H666.611ZM685.397 61.5227L694.399 78H687.048L678.206 61.5227H685.397Z" fill="#035EDD"/>
<path d="M101.243 47.857C103.694 49.9139 105.228 52.8602 105.506 56.0479C105.785 59.2356 104.786 62.4035 102.73 64.8547L96.9132 71.7865C96.399 72.3993 96.1493 73.1913 96.219 73.9882C96.2887 74.7851 96.6721 75.5217 97.285 76.0359C97.8978 76.5501 98.6897 76.7998 99.4867 76.7301C100.284 76.6604 101.02 76.277 101.534 75.6642L107.351 68.7324C110.436 65.0555 111.934 60.3036 111.516 55.5221C111.098 50.7406 108.797 46.3211 105.12 43.2358L98.1884 37.4194C97.5756 36.9052 96.7836 36.6555 95.9867 36.7252C95.1898 36.7949 94.4532 37.1783 93.939 37.7912C93.4248 38.404 93.1751 39.1959 93.2448 39.9929C93.3145 40.7898 93.6979 41.5264 94.3107 42.0406L101.243 47.857ZM91.5484 59.41C92.0626 58.7972 92.3123 58.0052 92.2426 57.2083C92.1729 56.4114 91.7895 55.6748 91.1766 55.1606L58.8283 28.0171C58.2155 27.5029 57.4235 27.2532 56.6266 27.3229C55.8297 27.3926 55.0931 27.7761 54.5789 28.3889C54.0647 29.0017 53.8149 29.7937 53.8847 30.5906C53.9544 31.3875 54.3378 32.1241 54.9506 32.6383L87.299 59.7818C87.9118 60.296 88.7038 60.5457 89.5007 60.476C90.2976 60.4063 91.0342 60.0228 91.5484 59.41ZM79.9155 73.2736C80.4297 72.6608 80.6794 71.8688 80.6097 71.0719C80.54 70.275 80.1565 69.5384 79.5437 69.0242L47.1954 41.8807C46.5825 41.3665 45.7906 41.1168 44.9936 41.1865C44.1967 41.2562 43.4601 41.6397 42.9459 42.2525C42.4317 42.8653 42.182 43.6573 42.2517 44.4542C42.3215 45.2511 42.7049 45.9877 43.3177 46.5019L75.6661 73.6454C76.2789 74.1596 77.0709 74.4093 77.8678 74.3396C78.6647 74.2699 79.4013 73.8864 79.9155 73.2736ZM67.9108 82.8878C68.5236 83.402 68.907 84.1386 68.9768 84.9355C69.0465 85.7324 68.7968 86.5244 68.2826 87.1372C67.7684 87.75 67.0318 88.1334 66.2349 88.2032C65.4379 88.2729 64.646 88.0232 64.0331 87.509L45.5484 71.9984C44.9356 71.4842 44.5521 70.7476 44.4824 69.9507C44.4127 69.1538 44.6624 68.3618 45.1766 67.749C45.6908 67.1362 46.4274 66.7527 47.2243 66.683C48.0212 66.6133 48.8132 66.863 49.426 67.3772L58.6684 75.1325L67.9108 82.8878ZM75.0824 18.0312C75.6952 18.5454 76.0787 19.282 76.1484 20.0789C76.2181 20.8758 75.9684 21.6678 75.4542 22.2806C74.94 22.8934 74.2034 23.2768 73.4065 23.3466C72.6096 23.4163 71.8176 23.1666 71.2048 22.6524L64.273 16.8359C61.8217 14.7791 58.6538 13.7802 55.4661 14.0591C52.2785 14.338 49.3321 15.8718 47.2753 18.323L41.4588 25.2548C40.9446 25.8676 40.208 26.251 39.4111 26.3208C38.6142 26.3905 37.8222 26.1408 37.2094 25.6266C36.5966 25.1124 36.2132 24.3758 36.1434 23.5789C36.0737 22.7819 36.3234 21.99 36.8376 21.3771L42.6541 14.4453C45.7393 10.7685 50.1588 8.46785 54.9404 8.04952C59.7219 7.63119 64.4738 9.12945 68.1506 12.2147L75.0824 18.0312ZM81.7744 94.5207C81.1616 94.0065 80.3696 93.7568 79.5727 93.8265C78.7758 93.8962 78.0392 94.2797 77.525 94.8925L71.7085 101.824C69.6517 104.276 66.7053 105.809 63.5176 106.088C60.33 106.367 57.162 105.368 54.7108 103.311L47.779 97.4949C47.1662 96.9807 46.3742 96.731 45.5773 96.8007C44.7804 96.8704 44.0438 97.2539 43.5296 97.8667C43.0154 98.4795 42.7657 99.2715 42.8354 100.068C42.9051 100.865 43.2886 101.602 43.9014 102.116L50.8332 107.933C54.51 111.018 59.2619 112.516 64.0434 112.098C68.8249 111.679 73.2444 109.379 76.3297 105.702L82.1462 98.7701C82.6604 98.1573 82.9101 97.3653 82.8403 96.5684C82.7706 95.7715 82.3872 95.0349 81.7744 94.5207ZM17.4494 44.4831C17.9636 43.8703 18.7002 43.4869 19.4971 43.4171C20.2941 43.3474 21.086 43.5971 21.6988 44.1113C22.3116 44.6256 22.6951 45.3621 22.7648 46.1591C22.8345 46.956 22.5848 47.748 22.0706 48.3608L16.2541 55.2926C14.1973 57.7438 13.1985 60.9117 13.4774 64.0994C13.7563 67.2871 15.29 70.2334 17.7412 72.2902L24.673 78.1067C25.2859 78.6209 25.6693 79.3575 25.739 80.1544C25.8087 80.9513 25.559 81.7433 25.0448 82.3561C24.5306 82.9689 23.794 83.3524 22.9971 83.4221C22.2002 83.4918 21.4082 83.2421 20.7954 82.7279L13.8636 76.9114C10.1868 73.8262 7.8861 69.4067 7.46777 64.6252C7.04944 59.8436 8.5477 55.0918 11.6329 51.4149L17.4494 44.4831Z" fill="url(#paint0_linear_412_17)"/>
<defs>
<linearGradient id="paint0_linear_412_17" x1="86.6354" y1="27.7253" x2="32.3484" y2="92.422" gradientUnits="userSpaceOnUse">
<stop stop-color="#0A70FF"/>
<stop offset="1" stop-color="#003C8F"/>
</linearGradient>
</defs>
</svg>
