<svg width="370" height="419" viewBox="0 0 370 419" fill="none" xmlns="http://www.w3.org/2000/svg">
<path d="M28.578 384.182V406H24.6256V384.182H28.578ZM58.2877 384.182V406H54.7721L44.4916 391.139H44.3105V406H40.358V384.182H43.895L54.1649 399.054H54.3566V384.182H58.2877ZM69.1356 387.495V384.182H86.5432V387.495H79.7996V406H75.8792V387.495H69.1356ZM97.3991 406V384.182H111.589V387.495H101.351V393.418H110.854V396.732H101.351V402.687H111.675V406H97.3991ZM123.122 406V384.182H127.074V402.687H136.684V406H123.122ZM147.614 406V384.182H151.566V402.687H161.176V406H147.614ZM176.059 384.182V406H172.106V384.182H176.059ZM202.455 391.149C202.277 390.574 202.032 390.059 201.72 389.604C201.415 389.143 201.045 388.749 200.612 388.422C200.186 388.095 199.696 387.85 199.142 387.687C198.588 387.516 197.984 387.431 197.331 387.431C196.159 387.431 195.115 387.726 194.199 388.315C193.282 388.905 192.562 389.771 192.036 390.915C191.517 392.051 191.258 393.436 191.258 395.07C191.258 396.717 191.517 398.113 192.036 399.256C192.554 400.4 193.275 401.27 194.199 401.867C195.122 402.456 196.194 402.751 197.416 402.751C198.524 402.751 199.483 402.538 200.292 402.112C201.109 401.685 201.738 401.082 202.178 400.3C202.618 399.512 202.839 398.589 202.839 397.531L203.733 397.669H197.81V394.58H206.663V397.2C206.663 399.068 206.265 400.684 205.47 402.048C204.674 403.411 203.581 404.462 202.189 405.201C200.797 405.933 199.199 406.298 197.395 406.298C195.385 406.298 193.62 405.847 192.1 404.945C190.587 404.036 189.405 402.747 188.552 401.078C187.707 399.402 187.285 397.413 187.285 395.112C187.285 393.351 187.533 391.778 188.03 390.393C188.535 389.008 189.238 387.832 190.14 386.867C191.042 385.894 192.1 385.155 193.314 384.651C194.529 384.139 195.85 383.884 197.277 383.884C198.485 383.884 199.611 384.061 200.655 384.416C201.699 384.764 202.625 385.261 203.435 385.908C204.252 386.554 204.923 387.321 205.449 388.209C205.974 389.097 206.319 390.077 206.482 391.149H202.455ZM217.985 406V384.182H226.167C227.843 384.182 229.249 384.473 230.386 385.055C231.529 385.638 232.392 386.455 232.974 387.506C233.564 388.55 233.859 389.768 233.859 391.16C233.859 392.559 233.56 393.773 232.964 394.803C232.374 395.826 231.504 396.618 230.354 397.179C229.203 397.733 227.79 398.01 226.114 398.01H220.286V394.729H225.581C226.561 394.729 227.364 394.594 227.989 394.324C228.614 394.047 229.075 393.646 229.373 393.12C229.679 392.587 229.832 391.934 229.832 391.16C229.832 390.386 229.679 389.725 229.373 389.178C229.068 388.624 228.603 388.205 227.978 387.921C227.353 387.63 226.547 387.484 225.56 387.484H221.937V406H217.985ZM229.256 396.114L234.658 406H230.247L224.942 396.114H229.256ZM247.799 406H243.58L251.261 384.182H256.14L263.832 406H259.613L253.786 388.656H253.615L247.799 406ZM247.937 397.445H259.443V400.62H247.937V397.445ZM281.599 406H274.206V384.182H281.748C283.915 384.182 285.775 384.619 287.331 385.492C288.893 386.359 290.093 387.605 290.932 389.232C291.77 390.858 292.189 392.804 292.189 395.07C292.189 397.342 291.766 399.296 290.921 400.929C290.083 402.563 288.872 403.816 287.288 404.69C285.711 405.563 283.815 406 281.599 406ZM278.158 402.58H281.407C282.927 402.58 284.195 402.303 285.211 401.749C286.226 401.188 286.99 400.354 287.501 399.246C288.013 398.131 288.268 396.739 288.268 395.07C288.268 393.401 288.013 392.016 287.501 390.915C286.99 389.807 286.233 388.979 285.232 388.433C284.238 387.879 283.002 387.602 281.525 387.602H278.158V402.58ZM303.444 406V384.182H317.634V387.495H307.396V393.418H316.899V396.732H307.396V402.687H317.72V406H303.444ZM329.167 406V384.182H337.348C339.025 384.182 340.431 384.473 341.567 385.055C342.711 385.638 343.574 386.455 344.156 387.506C344.745 388.55 345.04 389.768 345.04 391.16C345.04 392.559 344.742 393.773 344.145 394.803C343.556 395.826 342.686 396.618 341.535 397.179C340.385 397.733 338.971 398.01 337.295 398.01H331.468V394.729H336.763C337.743 394.729 338.545 394.594 339.17 394.324C339.795 394.047 340.257 393.646 340.555 393.12C340.861 392.587 341.013 391.934 341.013 391.16C341.013 390.386 340.861 389.725 340.555 389.178C340.25 388.624 339.785 388.205 339.16 387.921C338.535 387.63 337.728 387.484 336.741 387.484H333.119V406H329.167ZM340.438 396.114L345.839 406H341.429L336.123 396.114H340.438Z" fill="#035EDD"/>
<path d="M55.1361 222.855C47.5182 216.463 42.7516 207.306 41.8848 197.4C41.0181 187.493 44.1223 177.648 50.5145 170.03L68.5909 148.487C70.189 146.583 70.965 144.122 70.7483 141.645C70.5316 139.168 69.34 136.879 67.4355 135.281C65.531 133.683 63.0697 132.907 60.593 133.124C58.1164 133.34 55.8272 134.532 54.2292 136.436L36.1528 157.979C26.5645 169.406 21.9082 184.174 23.2083 199.034C24.5084 213.894 31.6583 227.629 43.0852 237.217L64.6278 255.293C66.5323 256.891 68.9936 257.668 71.4703 257.451C73.9469 257.234 76.2361 256.043 77.8341 254.138C79.4322 252.234 80.2082 249.772 79.9915 247.296C79.7749 244.819 78.5832 242.53 76.6787 240.932L55.1361 222.855ZM85.2634 186.951C83.6654 188.855 82.8893 191.317 83.106 193.793C83.3227 196.27 84.5144 198.559 86.4188 200.157L186.951 284.514C188.855 286.112 191.317 286.888 193.793 286.671C196.27 286.455 198.559 285.263 200.157 283.358C201.755 281.454 202.531 278.993 202.315 276.516C202.098 274.039 200.906 271.75 199.002 270.152L98.4698 185.796C96.5653 184.198 94.104 183.421 91.6273 183.638C89.1507 183.855 86.8615 185.046 85.2634 186.951ZM121.416 143.866C119.818 145.77 119.042 148.232 119.259 150.708C119.475 153.185 120.667 155.474 122.572 157.072L223.104 241.429C225.008 243.027 227.47 243.803 229.946 243.586C232.423 243.369 234.712 242.178 236.31 240.273C237.908 238.369 238.684 235.907 238.468 233.431C238.251 230.954 237.059 228.665 235.155 227.067L134.623 142.71C132.718 141.112 130.257 140.336 127.78 140.553C125.303 140.77 123.014 141.961 121.416 143.866ZM158.724 113.987C156.82 112.389 155.628 110.1 155.412 107.623C155.195 105.146 155.971 102.685 157.569 100.781C159.167 98.8761 161.456 97.6844 163.933 97.4678C166.41 97.2511 168.871 98.0271 170.775 99.6252L228.222 147.829C230.127 149.427 231.318 151.716 231.535 154.193C231.752 156.669 230.976 159.131 229.378 161.035C227.78 162.94 225.49 164.131 223.014 164.348C220.537 164.565 218.076 163.789 216.171 162.191L187.448 138.089L158.724 113.987ZM136.436 315.548C134.532 313.95 133.34 311.661 133.124 309.184C132.907 306.708 133.683 304.246 135.281 302.342C136.879 300.437 139.168 299.246 141.645 299.029C144.122 298.812 146.583 299.588 148.487 301.186L170.03 319.263C177.648 325.655 187.493 328.759 197.4 327.892C207.306 327.026 216.463 322.259 222.855 314.641L240.932 293.099C242.53 291.194 244.819 290.002 247.296 289.786C249.772 289.569 252.234 290.345 254.138 291.943C256.043 293.541 257.234 295.83 257.451 298.307C257.668 300.784 256.891 303.245 255.293 305.149L237.217 326.692C227.629 338.119 213.894 345.269 199.034 346.569C184.174 347.869 169.406 343.213 157.979 333.624L136.436 315.548ZM115.639 77.8341C117.544 79.4322 120.005 80.2082 122.482 79.9916C124.958 79.7749 127.247 78.5832 128.846 76.6787L146.922 55.1361C153.314 47.5182 162.471 42.7516 172.377 41.8848C182.284 41.0181 192.129 44.1223 199.747 50.5145L221.29 68.5909C223.194 70.189 225.656 70.965 228.132 70.7483C230.609 70.5316 232.898 69.34 234.496 67.4355C236.094 65.531 236.87 63.0697 236.654 60.593C236.437 58.1164 235.245 55.8272 233.341 54.2292L211.798 36.1528C200.371 26.5645 185.603 21.9082 170.743 23.2083C155.883 24.5083 142.149 31.6583 132.56 43.0852L114.484 64.6278C112.886 66.5323 112.11 68.9936 112.326 71.4703C112.543 73.9469 113.735 76.2361 115.639 77.8341ZM315.548 233.341C313.95 235.245 311.661 236.437 309.184 236.654C306.708 236.87 304.246 236.094 302.342 234.496C300.437 232.898 299.246 230.609 299.029 228.132C298.812 225.656 299.588 223.194 301.186 221.29L319.263 199.747C325.655 192.129 328.759 182.284 327.892 172.377C327.026 162.471 322.259 153.314 314.641 146.922L293.099 128.846C291.194 127.247 290.002 124.958 289.786 122.482C289.569 120.005 290.345 117.544 291.943 115.639C293.541 113.735 295.83 112.543 298.307 112.326C300.784 112.11 303.245 112.886 305.149 114.484L326.692 132.56C338.119 142.148 345.269 155.883 346.569 170.743C347.869 185.603 343.213 200.371 333.624 211.798L315.548 233.341Z" fill="url(#paint0_linear_412_20)"/>
<defs>
<linearGradient id="paint0_linear_412_20" x1="100.532" y1="285.421" x2="269.245" y2="84.3565" gradientUnits="userSpaceOnUse">
<stop stop-color="#0A70FF"/>
<stop offset="1" stop-color="#003C8F"/>
</linearGradient>
</defs>
</svg>
